<?xml version="1.0" encoding="utf-8"?>
<svg width="301px" height="60px" viewBox="0 0 301 60" version="1.1" xmlns:xlink="http://www.w3.org/1999/xlink" xmlns="http://www.w3.org/2000/svg">
  <g id="Group" transform="translate(0.5 0.5)">
    <path d="M0 0L300 0L300 59L0 59L0 0Z" id="Rectangle" fill="#FFFFFF" fill-rule="evenodd" stroke="#34BFFA" stroke-width="1" />
    <g id="Hente-i-butikk" fill="#686868" transform="translate(37.5 7.5)">
      <path d="M111.423 16.7905Q111.739 17.0909 112.18 17.0909Q112.621 17.0909 112.938 16.7905Q113.254 16.4901 113.254 16.0682Q113.254 15.6463 112.938 15.3459Q112.621 15.0455 112.18 15.0455Q111.739 15.0455 111.423 15.3459Q111.107 15.6463 111.107 16.0682Q111.107 16.4901 111.423 16.7905ZM148.931 16.7905Q149.248 17.0909 149.689 17.0909Q150.13 17.0909 150.446 16.7905Q150.763 16.4901 150.763 16.0682Q150.763 15.6463 150.446 15.3459Q150.13 15.0455 149.689 15.0455Q149.248 15.0455 148.931 15.3459Q148.615 15.6463 148.615 16.0682Q148.615 16.4901 148.931 16.7905ZM55.1889 15.4545L55.1889 28.5455L56.7741 28.5455L56.7741 22.6903L63.7543 22.6903L63.7543 28.5455L65.3395 28.5455L65.3395 15.4545L63.7543 15.4545L63.7543 21.2841L56.7741 21.2841L56.7741 15.4545L55.1889 15.4545ZM120.95 28.5455L120.95 15.4545L122.459 15.4545L122.459 20.2869L122.587 20.2869Q122.753 20.0312 123.05 19.6317Q123.347 19.2322 123.907 18.9158Q124.466 18.5994 125.425 18.5994Q126.665 18.5994 127.611 19.2195Q128.557 19.8395 129.087 20.9773Q129.618 22.1151 129.618 23.6619Q129.618 25.2216 129.087 26.3626Q128.557 27.5036 127.617 28.1268Q126.678 28.75 125.45 28.75Q124.504 28.75 123.935 28.4336Q123.366 28.1172 123.06 27.7113Q122.753 27.3054 122.587 27.0369L122.408 27.0369L122.408 28.5455L120.95 28.5455ZM153.192 28.5455L153.192 15.4545L154.7 15.4545L154.7 23.0994L154.879 23.0994L159.175 18.7273L161.041 18.7273L156.893 22.9205L161.348 28.5455L159.43 28.5455L155.755 23.892L154.7 24.87L154.7 28.5455L153.192 28.5455ZM162.984 15.4545L162.984 28.5455L164.493 28.5455L164.493 24.87L165.548 23.892L169.223 28.5455L171.141 28.5455L166.685 22.9205L170.834 18.7273L168.967 18.7273L164.672 23.0994L164.493 23.0994L164.493 15.4545L162.984 15.4545ZM93.5923 20.0057L93.5923 18.7273L91.4957 18.7273L91.4957 16.375L89.9872 16.375L89.9872 18.7273L88.5043 18.7273L88.5043 20.0057L89.9872 20.0057L89.9872 26.142Q89.9872 26.9986 90.3867 27.5611Q90.7862 28.1236 91.3967 28.3984Q92.0071 28.6733 92.6463 28.6733Q93.0682 28.6733 93.343 28.6126Q93.6179 28.5518 93.7713 28.4943L93.4645 27.1392Q93.3686 27.1584 93.2088 27.1871Q93.049 27.2159 92.7997 27.2159Q92.4673 27.2159 92.1701 27.1104Q91.8729 27.005 91.6843 26.6886Q91.4957 26.3722 91.4957 25.733L91.4957 20.0057L93.5923 20.0057ZM146.646 18.7273L146.646 20.0057L144.55 20.0057L144.55 25.733Q144.55 26.3722 144.738 26.6886Q144.927 27.005 145.224 27.1104Q145.521 27.2159 145.854 27.2159Q146.103 27.2159 146.263 27.1871Q146.423 27.1584 146.518 27.1392L146.825 28.4943Q146.672 28.5518 146.397 28.6126Q146.122 28.6733 145.7 28.6733Q145.061 28.6733 144.451 28.3984Q143.84 28.1236 143.441 27.5611Q143.041 26.9986 143.041 26.142L143.041 20.0057L141.558 20.0057L141.558 18.7273L143.041 18.7273L143.041 16.375L144.55 16.375L144.55 18.7273L146.646 18.7273ZM69.9769 28.1204Q71.0028 28.75 72.4219 28.75Q73.9176 28.75 74.9531 28.0661Q75.9886 27.3821 76.3338 26.2699L74.8764 25.8608Q74.5888 26.6278 73.9496 27.0114Q73.3104 27.3949 72.4219 27.3949Q71.0923 27.3949 70.2518 26.5575Q69.4112 25.7202 69.3601 24.1477L76.4872 24.1477L76.4872 23.5085Q76.4872 22.1342 76.1229 21.1946Q75.7585 20.255 75.1449 19.6829Q74.5312 19.1108 73.7834 18.8551Q73.0355 18.5994 72.2685 18.5994Q70.9389 18.5994 69.945 19.2482Q68.951 19.897 68.3981 21.0508Q67.8452 22.2045 67.8452 23.7131Q67.8452 25.2216 68.3981 26.3562Q68.951 27.4908 69.9769 28.1204ZM80.2969 22.6392L80.2969 28.5455L78.7884 28.5455L78.7884 18.7273L80.2457 18.7273L80.2457 20.2614L80.3736 20.2614Q80.7188 19.5135 81.4219 19.0565Q82.125 18.5994 83.2372 18.5994Q84.7266 18.5994 85.6438 19.5135Q86.5611 20.4276 86.5611 22.3068L86.5611 28.5455L85.0526 28.5455L85.0526 22.4091Q85.0526 21.2521 84.4517 20.6033Q83.8509 19.9545 82.8026 19.9545Q81.7223 19.9545 81.0096 20.6545Q80.2969 21.3544 80.2969 22.6392ZM99.9844 28.75Q98.5653 28.75 97.5394 28.1204Q96.5135 27.4908 95.9606 26.3562Q95.4077 25.2216 95.4077 23.7131Q95.4077 22.2045 95.9606 21.0508Q96.5135 19.897 97.5075 19.2482Q98.5014 18.5994 99.831 18.5994Q100.598 18.5994 101.346 18.8551Q102.094 19.1108 102.707 19.6829Q103.321 20.255 103.685 21.1946Q104.05 22.1342 104.05 23.5085L104.05 24.1477L96.9226 24.1477Q96.9737 25.7202 97.8143 26.5575Q98.6548 27.3949 99.9844 27.3949Q100.873 27.3949 101.512 27.0114Q102.151 26.6278 102.439 25.8608L103.896 26.2699Q103.551 27.3821 102.516 28.0661Q101.48 28.75 99.9844 28.75ZM111.413 18.7273L111.413 28.5455L112.922 28.5455L112.922 18.7273L111.413 18.7273ZM138.107 18.7273L138.107 24.5312Q138.107 25.4517 137.707 26.0462Q137.308 26.6406 136.723 26.9283Q136.138 27.2159 135.575 27.2159Q134.636 27.2159 134.032 26.5767Q133.428 25.9375 133.428 24.8636L133.428 18.7273L131.919 18.7273L131.919 24.9659Q131.919 26.8452 132.814 27.7592Q133.709 28.6733 135.089 28.6733Q136.202 28.6733 136.93 28.1523Q137.659 27.6314 138.004 26.8835L138.107 26.8835L138.107 28.5455L139.615 28.5455L139.615 18.7273L138.107 18.7273ZM150.43 18.7273L148.922 18.7273L148.922 28.5455L150.43 28.5455L150.43 18.7273ZM74.9531 22.8438L69.3601 22.8438Q69.4112 22.0831 69.7756 21.4215Q70.1399 20.7599 70.7727 20.3572Q71.4055 19.9545 72.2685 19.9545Q73.4957 19.9545 74.2244 20.7759Q74.9531 21.5973 74.9531 22.8438ZM96.9226 22.8438L102.516 22.8438Q102.516 21.5973 101.787 20.7759Q101.058 19.9545 99.831 19.9545Q98.968 19.9545 98.3352 20.3572Q97.7024 20.7599 97.3381 21.4215Q96.9737 22.0831 96.9226 22.8438ZM122.433 23.6364Q122.433 25.3047 123.159 26.3498Q123.884 27.3949 125.246 27.3949Q126.192 27.3949 126.828 26.8931Q127.464 26.3913 127.787 25.538Q128.109 24.6847 128.109 23.6364Q128.109 22.6009 127.793 21.7667Q127.477 20.9325 126.841 20.4435Q126.205 19.9545 125.246 19.9545Q123.865 19.9545 123.149 20.9709Q122.433 21.9872 122.433 23.6364Z" />
    </g>
  </g>
</svg>