<?xml version="1.0" encoding="utf-8"?>
<svg width="401px" height="60px" viewBox="0 0 401 60" version="1.1" xmlns:xlink="http://www.w3.org/1999/xlink" xmlns="http://www.w3.org/2000/svg">
  <g id="Group" transform="translate(0.5 0.5)">
    <path d="M0 0L400 0L400 59L0 59L0 0Z" id="Rectangle" fill="#FFFFFF" fill-rule="evenodd" stroke="#000000" stroke-width="1" />
    <g id="Hente-i-butikk" fill="#686868" transform="translate(50 7.5)">
      <path d="M148.923 16.7905Q149.239 17.0909 149.68 17.0909Q150.121 17.0909 150.438 16.7905Q150.754 16.4901 150.754 16.0682Q150.754 15.6463 150.438 15.3459Q150.121 15.0455 149.68 15.0455Q149.239 15.0455 148.923 15.3459Q148.607 15.6463 148.607 16.0682Q148.607 16.4901 148.923 16.7905ZM186.431 16.7905Q186.748 17.0909 187.189 17.0909Q187.63 17.0909 187.946 16.7905Q188.263 16.4901 188.263 16.0682Q188.263 15.6463 187.946 15.3459Q187.63 15.0455 187.189 15.0455Q186.748 15.0455 186.431 15.3459Q186.115 15.6463 186.115 16.0682Q186.115 16.4901 186.431 16.7905ZM92.6889 15.4545L92.6889 28.5455L94.2741 28.5455L94.2741 22.6903L101.254 22.6903L101.254 28.5455L102.839 28.5455L102.839 15.4545L101.254 15.4545L101.254 21.2841L94.2741 21.2841L94.2741 15.4545L92.6889 15.4545ZM158.45 28.5455L158.45 15.4545L159.959 15.4545L159.959 20.2869L160.087 20.2869Q160.253 20.0312 160.55 19.6317Q160.847 19.2322 161.407 18.9158Q161.966 18.5994 162.925 18.5994Q164.165 18.5994 165.111 19.2195Q166.057 19.8395 166.587 20.9773Q167.118 22.1151 167.118 23.6619Q167.118 25.2216 166.587 26.3626Q166.057 27.5036 165.117 28.1268Q164.178 28.75 162.95 28.75Q162.004 28.75 161.435 28.4336Q160.866 28.1172 160.56 27.7113Q160.253 27.3054 160.087 27.0369L159.908 27.0369L159.908 28.5455L158.45 28.5455ZM190.692 28.5455L190.692 15.4545L192.2 15.4545L192.2 23.0994L192.379 23.0994L196.675 18.7273L198.541 18.7273L194.393 22.9205L198.848 28.5455L196.93 28.5455L193.255 23.892L192.2 24.87L192.2 28.5455L190.692 28.5455ZM200.484 15.4545L200.484 28.5455L201.993 28.5455L201.993 24.87L203.048 23.892L206.723 28.5455L208.641 28.5455L204.185 22.9205L208.334 18.7273L206.467 18.7273L202.172 23.0994L201.993 23.0994L201.993 15.4545L200.484 15.4545ZM131.092 20.0057L131.092 18.7273L128.996 18.7273L128.996 16.375L127.487 16.375L127.487 18.7273L126.004 18.7273L126.004 20.0057L127.487 20.0057L127.487 26.142Q127.487 26.9986 127.887 27.5611Q128.286 28.1236 128.897 28.3984Q129.507 28.6733 130.146 28.6733Q130.568 28.6733 130.843 28.6126Q131.118 28.5518 131.271 28.4943L130.964 27.1392Q130.869 27.1584 130.709 27.1871Q130.549 27.2159 130.3 27.2159Q129.967 27.2159 129.67 27.1104Q129.373 27.005 129.184 26.6886Q128.996 26.3722 128.996 25.733L128.996 20.0057L131.092 20.0057ZM184.146 18.7273L184.146 20.0057L182.05 20.0057L182.05 25.733Q182.05 26.3722 182.238 26.6886Q182.427 27.005 182.724 27.1104Q183.021 27.2159 183.354 27.2159Q183.603 27.2159 183.763 27.1871Q183.923 27.1584 184.018 27.1392L184.325 28.4943Q184.172 28.5518 183.897 28.6126Q183.622 28.6733 183.2 28.6733Q182.561 28.6733 181.951 28.3984Q181.34 28.1236 180.941 27.5611Q180.541 26.9986 180.541 26.142L180.541 20.0057L179.058 20.0057L179.058 18.7273L180.541 18.7273L180.541 16.375L182.05 16.375L182.05 18.7273L184.146 18.7273ZM107.477 28.1204Q108.503 28.75 109.922 28.75Q111.418 28.75 112.453 28.0661Q113.489 27.3821 113.834 26.2699L112.376 25.8608Q112.089 26.6278 111.45 27.0114Q110.81 27.3949 109.922 27.3949Q108.592 27.3949 107.752 26.5575Q106.911 25.7202 106.86 24.1477L113.987 24.1477L113.987 23.5085Q113.987 22.1342 113.623 21.1946Q113.259 20.255 112.645 19.6829Q112.031 19.1108 111.283 18.8551Q110.536 18.5994 109.768 18.5994Q108.439 18.5994 107.445 19.2482Q106.451 19.897 105.898 21.0508Q105.345 22.2045 105.345 23.7131Q105.345 25.2216 105.898 26.3562Q106.451 27.4908 107.477 28.1204ZM117.797 22.6392L117.797 28.5455L116.288 28.5455L116.288 18.7273L117.746 18.7273L117.746 20.2614L117.874 20.2614Q118.219 19.5135 118.922 19.0565Q119.625 18.5994 120.737 18.5994Q122.227 18.5994 123.144 19.5135Q124.061 20.4276 124.061 22.3068L124.061 28.5455L122.553 28.5455L122.553 22.4091Q122.553 21.2521 121.952 20.6033Q121.351 19.9545 120.303 19.9545Q119.222 19.9545 118.51 20.6545Q117.797 21.3544 117.797 22.6392ZM137.484 28.75Q136.065 28.75 135.039 28.1204Q134.013 27.4908 133.461 26.3562Q132.908 25.2216 132.908 23.7131Q132.908 22.2045 133.461 21.0508Q134.013 19.897 135.007 19.2482Q136.001 18.5994 137.331 18.5994Q138.098 18.5994 138.846 18.8551Q139.594 19.1108 140.207 19.6829Q140.821 20.255 141.185 21.1946Q141.55 22.1342 141.55 23.5085L141.55 24.1477L134.423 24.1477Q134.474 25.7202 135.314 26.5575Q136.155 27.3949 137.484 27.3949Q138.373 27.3949 139.012 27.0114Q139.651 26.6278 139.939 25.8608L141.396 26.2699Q141.051 27.3821 140.016 28.0661Q138.98 28.75 137.484 28.75ZM148.913 18.7273L148.913 28.5455L150.422 28.5455L150.422 18.7273L148.913 18.7273ZM175.607 18.7273L175.607 24.5312Q175.607 25.4517 175.207 26.0462Q174.808 26.6406 174.223 26.9283Q173.638 27.2159 173.075 27.2159Q172.136 27.2159 171.532 26.5767Q170.928 25.9375 170.928 24.8636L170.928 18.7273L169.419 18.7273L169.419 24.9659Q169.419 26.8452 170.314 27.7592Q171.209 28.6733 172.589 28.6733Q173.702 28.6733 174.43 28.1523Q175.159 27.6314 175.504 26.8835L175.607 26.8835L175.607 28.5455L177.115 28.5455L177.115 18.7273L175.607 18.7273ZM187.93 18.7273L186.422 18.7273L186.422 28.5455L187.93 28.5455L187.93 18.7273ZM112.453 22.8438L106.86 22.8438Q106.911 22.0831 107.276 21.4215Q107.64 20.7599 108.273 20.3572Q108.906 19.9545 109.768 19.9545Q110.996 19.9545 111.724 20.7759Q112.453 21.5973 112.453 22.8438ZM134.423 22.8438L140.016 22.8438Q140.016 21.5973 139.287 20.7759Q138.558 19.9545 137.331 19.9545Q136.468 19.9545 135.835 20.3572Q135.202 20.7599 134.838 21.4215Q134.474 22.0831 134.423 22.8438ZM159.933 23.6364Q159.933 25.3047 160.659 26.3498Q161.384 27.3949 162.746 27.3949Q163.692 27.3949 164.328 26.8931Q164.964 26.3913 165.287 25.538Q165.609 24.6847 165.609 23.6364Q165.609 22.6009 165.293 21.7667Q164.977 20.9325 164.341 20.4435Q163.705 19.9545 162.746 19.9545Q161.365 19.9545 160.649 20.9709Q159.933 21.9872 159.933 23.6364Z" />
    </g>
  </g>
</svg>