<?xml version="1.0" encoding="utf-8"?>
<svg width="321px" height="60px" viewBox="0 0 321 60" version="1.1" xmlns:xlink="http://www.w3.org/1999/xlink" xmlns="http://www.w3.org/2000/svg">
  <g id="Group" transform="translate(0.5 0.5)">
    <path d="M0 0L320 0L320 59L0 59L0 0Z" id="Rectangle" fill="#FFFFFF" fill-rule="evenodd" stroke="#000000" stroke-width="1" />
    <g id="Hente-i-butikk" fill="#686868" transform="translate(40 7.5)">
      <path d="M118.923 16.7905Q119.239 17.0909 119.68 17.0909Q120.121 17.0909 120.438 16.7905Q120.754 16.4901 120.754 16.0682Q120.754 15.6463 120.438 15.3459Q120.121 15.0455 119.68 15.0455Q119.239 15.0455 118.923 15.3459Q118.607 15.6463 118.607 16.0682Q118.607 16.4901 118.923 16.7905ZM156.431 16.7905Q156.748 17.0909 157.189 17.0909Q157.63 17.0909 157.946 16.7905Q158.263 16.4901 158.263 16.0682Q158.263 15.6463 157.946 15.3459Q157.63 15.0455 157.189 15.0455Q156.748 15.0455 156.431 15.3459Q156.115 15.6463 156.115 16.0682Q156.115 16.4901 156.431 16.7905ZM62.6889 15.4545L62.6889 28.5455L64.2742 28.5455L64.2742 22.6903L71.2543 22.6903L71.2543 28.5455L72.8395 28.5455L72.8395 15.4545L71.2543 15.4545L71.2543 21.2841L64.2742 21.2841L64.2742 15.4545L62.6889 15.4545ZM128.45 28.5455L128.45 15.4545L129.959 15.4545L129.959 20.2869L130.087 20.2869Q130.253 20.0312 130.55 19.6317Q130.847 19.2322 131.407 18.9158Q131.966 18.5994 132.925 18.5994Q134.165 18.5994 135.111 19.2195Q136.057 19.8395 136.587 20.9773Q137.118 22.1151 137.118 23.6619Q137.118 25.2216 136.587 26.3626Q136.057 27.5036 135.117 28.1268Q134.178 28.75 132.95 28.75Q132.004 28.75 131.435 28.4336Q130.867 28.1172 130.56 27.7113Q130.253 27.3054 130.087 27.0369L129.908 27.0369L129.908 28.5455L128.45 28.5455ZM160.692 28.5455L160.692 15.4545L162.2 15.4545L162.2 23.0994L162.379 23.0994L166.675 18.7273L168.541 18.7273L164.393 22.9205L168.848 28.5455L166.93 28.5455L163.255 23.892L162.2 24.87L162.2 28.5455L160.692 28.5455ZM170.484 15.4545L170.484 28.5455L171.993 28.5455L171.993 24.87L173.048 23.892L176.723 28.5455L178.641 28.5455L174.185 22.9205L178.334 18.7273L176.467 18.7273L172.172 23.0994L171.993 23.0994L171.993 15.4545L170.484 15.4545ZM101.092 20.0057L101.092 18.7273L98.9958 18.7273L98.9958 16.375L97.4872 16.375L97.4872 18.7273L96.0043 18.7273L96.0043 20.0057L97.4872 20.0057L97.4872 26.142Q97.4872 26.9986 97.8867 27.5611Q98.2862 28.1236 98.8967 28.3984Q99.5071 28.6733 100.146 28.6733Q100.568 28.6733 100.843 28.6126Q101.118 28.5518 101.271 28.4943L100.965 27.1392Q100.869 27.1584 100.709 27.1871Q100.549 27.2159 100.3 27.2159Q99.9673 27.2159 99.6701 27.1104Q99.3729 27.005 99.1843 26.6886Q98.9958 26.3722 98.9958 25.733L98.9958 20.0057L101.092 20.0057ZM154.146 18.7273L154.146 20.0057L152.05 20.0057L152.05 25.733Q152.05 26.3722 152.238 26.6886Q152.427 27.005 152.724 27.1104Q153.021 27.2159 153.354 27.2159Q153.603 27.2159 153.763 27.1871Q153.923 27.1584 154.018 27.1392L154.325 28.4943Q154.172 28.5518 153.897 28.6126Q153.622 28.6733 153.2 28.6733Q152.561 28.6733 151.951 28.3984Q151.34 28.1236 150.941 27.5611Q150.541 26.9986 150.541 26.142L150.541 20.0057L149.058 20.0057L149.058 18.7273L150.541 18.7273L150.541 16.375L152.05 16.375L152.05 18.7273L154.146 18.7273ZM77.4769 28.1204Q78.5029 28.75 79.9219 28.75Q81.4176 28.75 82.4531 28.0661Q83.4886 27.3821 83.8338 26.2699L82.3764 25.8608Q82.0888 26.6278 81.4496 27.0114Q80.8104 27.3949 79.9219 27.3949Q78.5923 27.3949 77.7518 26.5575Q76.9112 25.7202 76.8601 24.1477L83.9872 24.1477L83.9872 23.5085Q83.9872 22.1342 83.6229 21.1946Q83.2585 20.255 82.6449 19.6829Q82.0313 19.1108 81.2834 18.8551Q80.5355 18.5994 79.7685 18.5994Q78.4389 18.5994 77.445 19.2482Q76.451 19.897 75.8981 21.0508Q75.3452 22.2045 75.3452 23.7131Q75.3452 25.2216 75.8981 26.3562Q76.451 27.4908 77.4769 28.1204ZM87.7969 22.6392L87.7969 28.5455L86.2884 28.5455L86.2884 18.7273L87.7458 18.7273L87.7458 20.2614L87.8736 20.2614Q88.2188 19.5135 88.9219 19.0565Q89.625 18.5994 90.7372 18.5994Q92.2266 18.5994 93.1438 19.5135Q94.0611 20.4276 94.0611 22.3068L94.0611 28.5455L92.5526 28.5455L92.5526 22.4091Q92.5526 21.2521 91.9517 20.6033Q91.3509 19.9545 90.3026 19.9545Q89.2223 19.9545 88.5096 20.6545Q87.7969 21.3544 87.7969 22.6392ZM107.484 28.75Q106.065 28.75 105.039 28.1204Q104.014 27.4908 103.461 26.3562Q102.908 25.2216 102.908 23.7131Q102.908 22.2045 103.461 21.0508Q104.014 19.897 105.007 19.2482Q106.001 18.5994 107.331 18.5994Q108.098 18.5994 108.846 18.8551Q109.594 19.1108 110.207 19.6829Q110.821 20.255 111.185 21.1946Q111.55 22.1342 111.55 23.5085L111.55 24.1477L104.423 24.1477Q104.474 25.7202 105.314 26.5575Q106.155 27.3949 107.484 27.3949Q108.373 27.3949 109.012 27.0114Q109.651 26.6278 109.939 25.8608L111.396 26.2699Q111.051 27.3821 110.016 28.0661Q108.98 28.75 107.484 28.75ZM118.913 18.7273L118.913 28.5455L120.422 28.5455L120.422 18.7273L118.913 18.7273ZM145.607 18.7273L145.607 24.5312Q145.607 25.4517 145.207 26.0462Q144.808 26.6406 144.223 26.9283Q143.638 27.2159 143.075 27.2159Q142.136 27.2159 141.532 26.5767Q140.928 25.9375 140.928 24.8636L140.928 18.7273L139.419 18.7273L139.419 24.9659Q139.419 26.8452 140.314 27.7592Q141.209 28.6733 142.589 28.6733Q143.702 28.6733 144.43 28.1523Q145.159 27.6314 145.504 26.8835L145.607 26.8835L145.607 28.5455L147.115 28.5455L147.115 18.7273L145.607 18.7273ZM157.93 18.7273L156.422 18.7273L156.422 28.5455L157.93 28.5455L157.93 18.7273ZM82.4531 22.8438L76.8601 22.8438Q76.9112 22.0831 77.2756 21.4215Q77.6399 20.7599 78.2727 20.3572Q78.9056 19.9545 79.7685 19.9545Q80.9958 19.9545 81.7244 20.7759Q82.4531 21.5973 82.4531 22.8438ZM104.423 22.8438L110.016 22.8438Q110.016 21.5973 109.287 20.7759Q108.558 19.9545 107.331 19.9545Q106.468 19.9545 105.835 20.3572Q105.202 20.7599 104.838 21.4215Q104.474 22.0831 104.423 22.8438ZM129.933 23.6364Q129.933 25.3047 130.659 26.3498Q131.384 27.3949 132.746 27.3949Q133.692 27.3949 134.328 26.8931Q134.964 26.3913 135.287 25.538Q135.609 24.6847 135.609 23.6364Q135.609 22.6009 135.293 21.7667Q134.977 20.9325 134.341 20.4435Q133.705 19.9545 132.746 19.9545Q131.365 19.9545 130.649 20.9709Q129.933 21.9872 129.933 23.6364Z" />
    </g>
  </g>
</svg>