<?xml version="1.0" encoding="utf-8"?>
<svg width="321px" height="60px" viewBox="0 0 321 60" version="1.1" xmlns:xlink="http://www.w3.org/1999/xlink" xmlns="http://www.w3.org/2000/svg">
  <g id="Group" transform="translate(0.5 0.5)">
    <path d="M0 0L320 0L320 59L0 59L0 0Z" id="Rectangle" fill="#FFFFFF" fill-rule="evenodd" stroke="#000000" stroke-width="1" />
    <g id="Hjemlevering-med-bring" fill="#686868" transform="translate(39.999985 7.5)">
      <path d="M33.423 16.7905Q33.7394 17.0909 34.1804 17.0909Q34.6215 17.0909 34.9379 16.7905Q35.2543 16.4901 35.2543 16.0682Q35.2543 15.6463 34.9379 15.3459Q34.6215 15.0455 34.1804 15.0455Q33.7394 15.0455 33.423 15.3459Q33.1065 15.6463 33.1065 16.0682Q33.1065 16.4901 33.423 16.7905ZM105.806 16.7905Q106.123 17.0909 106.564 17.0909Q107.005 17.0909 107.321 16.7905Q107.638 16.4901 107.638 16.0682Q107.638 15.6463 107.321 15.3459Q107.005 15.0455 106.564 15.0455Q106.123 15.0455 105.806 15.3459Q105.49 15.6463 105.49 16.0682Q105.49 16.4901 105.806 16.7905ZM196.88 16.7905Q197.197 17.0909 197.638 17.0909Q198.079 17.0909 198.395 16.7905Q198.712 16.4901 198.712 16.0682Q198.712 15.6463 198.395 15.3459Q198.079 15.0455 197.638 15.0455Q197.197 15.0455 196.88 15.3459Q196.564 15.6463 196.564 16.0682Q196.564 16.4901 196.88 16.7905ZM20.3225 15.4545L20.3225 28.5455L21.9077 28.5455L21.9077 22.6903L28.8878 22.6903L28.8878 28.5455L30.473 28.5455L30.473 15.4545L28.8878 15.4545L28.8878 21.2841L21.9077 21.2841L21.9077 15.4545L20.3225 15.4545ZM65.348 15.4545L65.348 28.5455L63.8395 28.5455L63.8395 15.4545L65.348 15.4545ZM166.47 28.75Q165.243 28.75 164.303 28.1268Q163.364 27.5036 162.833 26.3626Q162.303 25.2216 162.303 23.6619Q162.303 22.1151 162.833 20.9773Q163.364 19.8395 164.31 19.2195Q165.256 18.5994 166.496 18.5994Q167.455 18.5994 168.014 18.9158Q168.573 19.2322 168.87 19.6317Q169.168 20.0312 169.334 20.2869L169.462 20.2869L169.462 15.4545L170.97 15.4545L170.97 28.5455L169.513 28.5455L169.513 27.0369L169.334 27.0369Q169.168 27.3054 168.861 27.7113Q168.554 28.1172 167.985 28.4336Q167.416 28.75 166.47 28.75ZM179.203 15.4545L179.203 28.5455L180.661 28.5455L180.661 27.0369L180.839 27.0369Q181.006 27.3054 181.312 27.7113Q181.619 28.1172 182.188 28.4336Q182.757 28.75 183.703 28.75Q184.93 28.75 185.87 28.1268Q186.81 27.5036 187.34 26.3626Q187.871 25.2216 187.871 23.6619Q187.871 22.1151 187.34 20.9773Q186.81 19.8395 185.864 19.2195Q184.918 18.5994 183.678 18.5994Q182.719 18.5994 182.159 18.9158Q181.6 19.2322 181.303 19.6317Q181.006 20.0312 180.839 20.2869L180.712 20.2869L180.712 15.4545L179.203 15.4545ZM99.098 28.5455L99.098 18.7273L100.555 18.7273L100.555 20.2102L100.658 20.2102Q100.926 19.4815 101.629 19.0277Q102.332 18.5739 103.215 18.5739Q103.381 18.5739 103.63 18.5803Q103.879 18.5866 104.007 18.5994L104.007 20.1335Q103.93 20.1143 103.659 20.0728Q103.387 20.0312 103.087 20.0312Q102.013 20.0312 101.31 20.6832Q100.607 21.3352 100.607 22.3324L100.607 28.5455L99.098 28.5455ZM190.172 18.7273L191.629 18.7273L191.629 20.2102L191.732 20.2102Q192 19.4815 192.703 19.0277Q193.406 18.5739 194.288 18.5739Q194.455 18.5739 194.704 18.5803Q194.953 18.5866 195.081 18.5994L195.081 20.1335Q195.004 20.1143 194.733 20.0728Q194.461 20.0312 194.161 20.0312Q193.087 20.0312 192.384 20.6832Q191.68 21.3352 191.68 22.3324L191.68 28.5455L190.172 28.5455L190.172 18.7273ZM41.8253 28.75Q40.4063 28.75 39.3803 28.1204Q38.3544 27.4908 37.8015 26.3562Q37.2486 25.2216 37.2486 23.7131Q37.2486 22.2045 37.8015 21.0508Q38.3544 19.897 39.3484 19.2482Q40.3423 18.5994 41.6719 18.5994Q42.4389 18.5994 43.1868 18.8551Q43.9347 19.1108 44.5483 19.6829Q45.1619 20.255 45.5263 21.1946Q45.8906 22.1342 45.8906 23.5085L45.8906 24.1477L38.7635 24.1477Q38.8146 25.7202 39.6552 26.5575Q40.4958 27.3949 41.8253 27.3949Q42.7138 27.3949 43.353 27.0114Q43.9922 26.6278 44.2798 25.8608L45.7372 26.2699Q45.3921 27.3821 44.3565 28.0661Q43.321 28.75 41.8253 28.75ZM48.1918 18.7273L48.1918 28.5455L49.7003 28.5455L49.7003 22.4091Q49.7003 21.6868 50.0103 21.1339Q50.3203 20.581 50.8285 20.2678Q51.3367 19.9545 51.9247 19.9545Q52.7813 19.9545 53.3246 20.4691Q53.8679 20.9837 53.8679 21.821L53.8679 28.5455L55.402 28.5455L55.402 22.1534Q55.402 21.201 55.9709 20.5778Q56.5398 19.9545 57.5753 19.9545Q58.3807 19.9545 58.9752 20.4212Q59.5696 20.8878 59.5696 21.9744L59.5696 28.5455L61.0781 28.5455L61.0781 21.9744Q61.0781 20.2422 60.2408 19.4208Q59.4034 18.5994 58.0867 18.5994Q57.032 18.5994 56.2777 19.0501Q55.5234 19.5007 55.1463 20.2614L55.044 20.2614Q54.6797 19.4751 54.0309 19.0373Q53.3821 18.5994 52.4105 18.5994Q51.4517 18.5994 50.7678 19.0373Q50.0838 19.4751 49.777 20.2614L49.6492 20.2614L49.6492 18.7273L48.1918 18.7273ZM69.7809 28.1204Q70.8068 28.75 72.2259 28.75Q73.7216 28.75 74.7571 28.0661Q75.7926 27.3821 76.1378 26.2699L74.6804 25.8608Q74.3928 26.6278 73.7536 27.0114Q73.1144 27.3949 72.2259 27.3949Q70.8963 27.3949 70.0558 26.5575Q69.2152 25.7202 69.1641 24.1477L76.2912 24.1477L76.2912 23.5085Q76.2912 22.1342 75.9269 21.1946Q75.5625 20.255 74.9489 19.6829Q74.3352 19.1108 73.5874 18.8551Q72.8395 18.5994 72.0725 18.5994Q70.7429 18.5994 69.7489 19.2482Q68.755 19.897 68.2021 21.0508Q67.6492 22.2045 67.6492 23.7131Q67.6492 25.2216 68.2021 26.3562Q68.755 27.4908 69.7809 28.1204ZM90.2866 28.1204Q91.3125 28.75 92.7316 28.75Q94.2273 28.75 95.2628 28.0661Q96.2983 27.3821 96.6435 26.2699L95.1861 25.8608Q94.8985 26.6278 94.2592 27.0114Q93.62 27.3949 92.7316 27.3949Q91.402 27.3949 90.5614 26.5575Q89.7209 25.7202 89.6698 24.1477L96.7969 24.1477L96.7969 23.5085Q96.7969 22.1342 96.4325 21.1946Q96.0682 20.255 95.4546 19.6829Q94.8409 19.1108 94.0931 18.8551Q93.3452 18.5994 92.5781 18.5994Q91.2486 18.5994 90.2546 19.2482Q89.2607 19.897 88.7078 21.0508Q88.1548 22.2045 88.1548 23.7131Q88.1548 25.2216 88.7078 26.3562Q89.2607 27.4908 90.2866 28.1204ZM111.575 22.6392L111.575 28.5455L110.067 28.5455L110.067 18.7273L111.524 18.7273L111.524 20.2614L111.652 20.2614Q111.997 19.5135 112.7 19.0565Q113.403 18.5994 114.516 18.5994Q116.005 18.5994 116.922 19.5135Q117.84 20.4276 117.84 22.3068L117.84 28.5455L116.331 28.5455L116.331 22.4091Q116.331 21.2521 115.73 20.6033Q115.129 19.9545 114.081 19.9545Q113.001 19.9545 112.288 20.6545Q111.575 21.3544 111.575 22.6392ZM121.966 31.8342Q122.921 32.4318 124.564 32.4318Q125.74 32.4318 126.702 32.0579Q127.664 31.6839 128.236 30.8881Q128.808 30.0923 128.808 28.8267L128.808 18.7273L127.351 18.7273L127.351 20.2869L127.197 20.2869Q127.031 20.0312 126.728 19.6317Q126.424 19.2322 125.858 18.9158Q125.293 18.5994 124.334 18.5994Q123.094 18.5994 122.148 19.2163Q121.202 19.8331 120.671 20.9549Q120.141 22.0767 120.141 23.5852Q120.141 25.1193 120.687 26.1932Q121.234 27.267 122.177 27.8295Q123.119 28.392 124.308 28.392Q125.267 28.392 125.833 28.0884Q126.398 27.7848 126.702 27.3917Q127.006 26.9986 127.172 26.7301L127.3 26.7301L127.3 28.7244Q127.3 29.9517 126.526 30.527Q125.753 31.1023 124.564 31.1023Q123.675 31.1023 123.129 30.8434Q122.582 30.5845 122.269 30.2362Q121.956 29.8878 121.751 29.6193L120.55 30.4631Q121.01 31.2365 121.966 31.8342ZM136.632 28.5455L136.632 18.7273L138.09 18.7273L138.09 20.2614L138.217 20.2614Q138.524 19.4751 139.208 19.0373Q139.892 18.5994 140.851 18.5994Q141.822 18.5994 142.471 19.0373Q143.12 19.4751 143.484 20.2614L143.587 20.2614Q143.964 19.5007 144.718 19.0501Q145.472 18.5994 146.527 18.5994Q147.844 18.5994 148.681 19.4208Q149.518 20.2422 149.518 21.9744L149.518 28.5455L148.01 28.5455L148.01 21.9744Q148.01 20.8878 147.415 20.4212Q146.821 19.9545 146.016 19.9545Q144.98 19.9545 144.411 20.5778Q143.842 21.201 143.842 22.1534L143.842 28.5455L142.308 28.5455L142.308 21.821Q142.308 20.9837 141.765 20.4691Q141.222 19.9545 140.365 19.9545Q139.777 19.9545 139.269 20.2678Q138.761 20.581 138.451 21.1339Q138.141 21.6868 138.141 22.4091L138.141 28.5455L136.632 28.5455ZM153.951 28.1204Q154.977 28.75 156.396 28.75Q157.892 28.75 158.928 28.0661Q159.963 27.3821 160.308 26.2699L158.851 25.8608Q158.563 26.6278 157.924 27.0114Q157.285 27.3949 156.396 27.3949Q155.067 27.3949 154.226 26.5575Q153.386 25.7202 153.335 24.1477L160.462 24.1477L160.462 23.5085Q160.462 22.1342 160.097 21.1946Q159.733 20.255 159.119 19.6829Q158.506 19.1108 157.758 18.8551Q157.01 18.5994 156.243 18.5994Q154.913 18.5994 153.919 19.2482Q152.925 19.897 152.373 21.0508Q151.82 22.2045 151.82 23.7131Q151.82 25.2216 152.373 26.3562Q152.925 27.4908 153.951 28.1204ZM202.649 22.6392L202.649 28.5455L201.141 28.5455L201.141 18.7273L202.598 18.7273L202.598 20.2614L202.726 20.2614Q203.071 19.5135 203.774 19.0565Q204.477 18.5994 205.589 18.5994Q207.079 18.5994 207.996 19.5135Q208.913 20.4276 208.913 22.3068L208.913 28.5455L207.405 28.5455L207.405 22.4091Q207.405 21.2521 206.804 20.6033Q206.203 19.9545 205.155 19.9545Q204.075 19.9545 203.362 20.6545Q202.649 21.3544 202.649 22.6392ZM213.039 31.8342Q213.995 32.4318 215.638 32.4318Q216.814 32.4318 217.776 32.0579Q218.738 31.6839 219.31 30.8881Q219.882 30.0923 219.882 28.8267L219.882 18.7273L218.425 18.7273L218.425 20.2869L218.271 20.2869Q218.105 20.0312 217.801 19.6317Q217.498 19.2322 216.932 18.9158Q216.366 18.5994 215.408 18.5994Q214.168 18.5994 213.222 19.2163Q212.276 19.8331 211.745 20.9549Q211.214 22.0767 211.214 23.5852Q211.214 25.1193 211.761 26.1932Q212.308 27.267 213.25 27.8295Q214.193 28.392 215.382 28.392Q216.341 28.392 216.907 28.0884Q217.472 27.7848 217.776 27.3917Q218.08 26.9986 218.246 26.7301L218.374 26.7301L218.374 28.7244Q218.374 29.9517 217.6 30.527Q216.827 31.1023 215.638 31.1023Q214.749 31.1023 214.203 30.8434Q213.656 30.5845 213.343 30.2362Q213.03 29.8878 212.825 29.6193L211.624 30.4631Q212.084 31.2365 213.039 31.8342ZM34.9475 18.7273L33.4389 18.7273L33.4389 29.2614Q33.4389 30.0092 33.1193 30.4151Q32.7997 30.821 32.1094 30.821L31.8281 30.821L31.8281 32.2273L32.135 32.2273Q33.554 32.2273 34.2507 31.4251Q34.9475 30.6229 34.9475 29.2614L34.9475 18.7273ZM86.6208 18.7273L82.9901 28.5455L81.456 28.5455L77.8253 18.7273L79.4617 18.7273L82.1719 26.5511L82.2742 26.5511L84.9844 18.7273L86.6208 18.7273ZM105.797 18.7273L105.797 28.5455L107.305 28.5455L107.305 18.7273L105.797 18.7273ZM198.379 18.7273L196.871 18.7273L196.871 28.5455L198.379 28.5455L198.379 18.7273ZM38.7635 22.8438L44.3565 22.8438Q44.3565 21.5973 43.6279 20.7759Q42.8992 19.9545 41.6719 19.9545Q40.809 19.9545 40.1762 20.3572Q39.5433 20.7599 39.179 21.4215Q38.8146 22.0831 38.7635 22.8438ZM74.7571 22.8438L69.1641 22.8438Q69.2152 22.0831 69.5796 21.4215Q69.9439 20.7599 70.5767 20.3572Q71.2095 19.9545 72.0725 19.9545Q73.2997 19.9545 74.0284 20.7759Q74.7571 21.5973 74.7571 22.8438ZM95.2628 22.8438L89.6698 22.8438Q89.7209 22.0831 90.0852 21.4215Q90.4496 20.7599 91.0824 20.3572Q91.7152 19.9545 92.5781 19.9545Q93.8054 19.9545 94.5341 20.7759Q95.2628 21.5973 95.2628 22.8438ZM126.6 26.1133Q125.874 27.0369 124.513 27.0369Q123.094 27.0369 122.371 26.0653Q121.649 25.0938 121.649 23.5597Q121.649 22.5625 121.966 21.7443Q122.282 20.9261 122.918 20.4403Q123.554 19.9545 124.513 19.9545Q125.893 19.9545 126.609 20.9613Q127.325 21.968 127.325 23.5597Q127.325 25.1896 126.6 26.1133ZM158.928 22.8438L153.335 22.8438Q153.386 22.0831 153.75 21.4215Q154.114 20.7599 154.747 20.3572Q155.38 19.9545 156.243 19.9545Q157.47 19.9545 158.199 20.7759Q158.928 21.5973 158.928 22.8438ZM166.675 27.3949Q168.036 27.3949 168.762 26.3498Q169.487 25.3047 169.487 23.6364Q169.487 21.9872 168.771 20.9709Q168.055 19.9545 166.675 19.9545Q165.716 19.9545 165.08 20.4435Q164.444 20.9325 164.127 21.7667Q163.811 22.6009 163.811 23.6364Q163.811 24.6847 164.134 25.538Q164.457 26.3913 165.093 26.8931Q165.729 27.3949 166.675 27.3949ZM181.412 26.3498Q180.686 25.3047 180.686 23.6364Q180.686 21.9872 181.402 20.9709Q182.118 19.9545 183.499 19.9545Q184.457 19.9545 185.093 20.4435Q185.729 20.9325 186.046 21.7667Q186.362 22.6009 186.362 23.6364Q186.362 24.6847 186.039 25.538Q185.717 26.3913 185.081 26.8931Q184.445 27.3949 183.499 27.3949Q182.137 27.3949 181.412 26.3498ZM217.674 26.1133Q216.948 27.0369 215.587 27.0369Q214.168 27.0369 213.445 26.0653Q212.723 25.0938 212.723 23.5597Q212.723 22.5625 213.039 21.7443Q213.356 20.9261 213.992 20.4403Q214.628 19.9545 215.587 19.9545Q216.967 19.9545 217.683 20.9613Q218.399 21.968 218.399 23.5597Q218.399 25.1896 217.674 26.1133Z" />
    </g>
  </g>
</svg>