<?xml version="1.0" encoding="utf-8"?>
<svg width="401px" height="60px" viewBox="0 0 401 60" version="1.1" xmlns:xlink="http://www.w3.org/1999/xlink" xmlns="http://www.w3.org/2000/svg">
  <g id="Group" transform="translate(0.5 0.5)">
    <path d="M0 0L400 0L400 59L0 59L0 0Z" id="Rectangle" fill="#FFFFFF" fill-rule="evenodd" stroke="#000000" stroke-width="1" />
    <g id="Hjemlevering-med-bring" fill="#686868" transform="translate(50 7.5)">
      <path d="M63.4229 16.7905Q63.7393 17.0909 64.1804 17.0909Q64.6214 17.0909 64.9379 16.7905Q65.2543 16.4901 65.2543 16.0682Q65.2543 15.6463 64.9379 15.3459Q64.6214 15.0455 64.1804 15.0455Q63.7393 15.0455 63.4229 15.3459Q63.1065 15.6463 63.1065 16.0682Q63.1065 16.4901 63.4229 16.7905ZM135.806 16.7905Q136.123 17.0909 136.564 17.0909Q137.005 17.0909 137.321 16.7905Q137.638 16.4901 137.638 16.0682Q137.638 15.6463 137.321 15.3459Q137.005 15.0455 136.564 15.0455Q136.123 15.0455 135.806 15.3459Q135.49 15.6463 135.49 16.0682Q135.49 16.4901 135.806 16.7905ZM226.88 16.7905Q227.197 17.0909 227.638 17.0909Q228.079 17.0909 228.395 16.7905Q228.712 16.4901 228.712 16.0682Q228.712 15.6463 228.395 15.3459Q228.079 15.0455 227.638 15.0455Q227.197 15.0455 226.88 15.3459Q226.564 15.6463 226.564 16.0682Q226.564 16.4901 226.88 16.7905ZM50.3224 15.4545L50.3224 28.5455L51.9077 28.5455L51.9077 22.6903L58.8878 22.6903L58.8878 28.5455L60.473 28.5455L60.473 15.4545L58.8878 15.4545L58.8878 21.2841L51.9077 21.2841L51.9077 15.4545L50.3224 15.4545ZM95.348 15.4545L95.348 28.5455L93.8395 28.5455L93.8395 15.4545L95.348 15.4545ZM196.47 28.75Q195.243 28.75 194.303 28.1268Q193.364 27.5036 192.833 26.3626Q192.303 25.2216 192.303 23.6619Q192.303 22.1151 192.833 20.9773Q193.364 19.8395 194.31 19.2195Q195.256 18.5994 196.496 18.5994Q197.455 18.5994 198.014 18.9158Q198.573 19.2322 198.87 19.6317Q199.168 20.0312 199.334 20.2869L199.462 20.2869L199.462 15.4545L200.97 15.4545L200.97 28.5455L199.513 28.5455L199.513 27.0369L199.334 27.0369Q199.168 27.3054 198.861 27.7113Q198.554 28.1172 197.985 28.4336Q197.416 28.75 196.47 28.75ZM209.203 15.4545L209.203 28.5455L210.661 28.5455L210.661 27.0369L210.839 27.0369Q211.006 27.3054 211.312 27.7113Q211.619 28.1172 212.188 28.4336Q212.757 28.75 213.703 28.75Q214.93 28.75 215.87 28.1268Q216.81 27.5036 217.34 26.3626Q217.871 25.2216 217.871 23.6619Q217.871 22.1151 217.34 20.9773Q216.81 19.8395 215.864 19.2195Q214.918 18.5994 213.678 18.5994Q212.719 18.5994 212.159 18.9158Q211.6 19.2322 211.303 19.6317Q211.006 20.0312 210.839 20.2869L210.712 20.2869L210.712 15.4545L209.203 15.4545ZM129.098 28.5455L129.098 18.7273L130.555 18.7273L130.555 20.2102L130.658 20.2102Q130.926 19.4815 131.629 19.0277Q132.332 18.5739 133.214 18.5739Q133.381 18.5739 133.63 18.5803Q133.879 18.5866 134.007 18.5994L134.007 20.1335Q133.93 20.1143 133.659 20.0728Q133.387 20.0312 133.087 20.0312Q132.013 20.0312 131.31 20.6832Q130.607 21.3352 130.607 22.3324L130.607 28.5455L129.098 28.5455ZM220.172 18.7273L221.629 18.7273L221.629 20.2102L221.732 20.2102Q222 19.4815 222.703 19.0277Q223.406 18.5739 224.288 18.5739Q224.455 18.5739 224.704 18.5803Q224.953 18.5866 225.081 18.5994L225.081 20.1335Q225.004 20.1143 224.733 20.0728Q224.461 20.0312 224.161 20.0312Q223.087 20.0312 222.384 20.6832Q221.68 21.3352 221.68 22.3324L221.68 28.5455L220.172 28.5455L220.172 18.7273ZM71.8253 28.75Q70.4062 28.75 69.3803 28.1204Q68.3544 27.4908 67.8015 26.3562Q67.2486 25.2216 67.2486 23.7131Q67.2486 22.2045 67.8015 21.0508Q68.3544 19.897 69.3484 19.2482Q70.3423 18.5994 71.6719 18.5994Q72.4389 18.5994 73.1868 18.8551Q73.9347 19.1108 74.5483 19.6829Q75.1619 20.255 75.5263 21.1946Q75.8906 22.1342 75.8906 23.5085L75.8906 24.1477L68.7635 24.1477Q68.8146 25.7202 69.6552 26.5575Q70.4957 27.3949 71.8253 27.3949Q72.7138 27.3949 73.353 27.0114Q73.9922 26.6278 74.2798 25.8608L75.7372 26.2699Q75.392 27.3821 74.3565 28.0661Q73.321 28.75 71.8253 28.75ZM78.1918 18.7273L78.1918 28.5455L79.7003 28.5455L79.7003 22.4091Q79.7003 21.6868 80.0103 21.1339Q80.3203 20.581 80.8285 20.2678Q81.3366 19.9545 81.9247 19.9545Q82.7812 19.9545 83.3246 20.4691Q83.8679 20.9837 83.8679 21.821L83.8679 28.5455L85.402 28.5455L85.402 22.1534Q85.402 21.201 85.9709 20.5778Q86.5398 19.9545 87.5753 19.9545Q88.3807 19.9545 88.9751 20.4212Q89.5696 20.8878 89.5696 21.9744L89.5696 28.5455L91.0781 28.5455L91.0781 21.9744Q91.0781 20.2422 90.2408 19.4208Q89.4034 18.5994 88.0866 18.5994Q87.032 18.5994 86.2777 19.0501Q85.5234 19.5007 85.1463 20.2614L85.044 20.2614Q84.6797 19.4751 84.0309 19.0373Q83.3821 18.5994 82.4105 18.5994Q81.4517 18.5994 80.7678 19.0373Q80.0838 19.4751 79.777 20.2614L79.6491 20.2614L79.6491 18.7273L78.1918 18.7273ZM99.7809 28.1204Q100.807 28.75 102.226 28.75Q103.722 28.75 104.757 28.0661Q105.793 27.3821 106.138 26.2699L104.68 25.8608Q104.393 26.6278 103.754 27.0114Q103.114 27.3949 102.226 27.3949Q100.896 27.3949 100.056 26.5575Q99.2152 25.7202 99.1641 24.1477L106.291 24.1477L106.291 23.5085Q106.291 22.1342 105.927 21.1946Q105.562 20.255 104.949 19.6829Q104.335 19.1108 103.587 18.8551Q102.839 18.5994 102.072 18.5994Q100.743 18.5994 99.7489 19.2482Q98.755 19.897 98.2021 21.0508Q97.6491 22.2045 97.6491 23.7131Q97.6491 25.2216 98.2021 26.3562Q98.755 27.4908 99.7809 28.1204ZM120.287 28.1204Q121.312 28.75 122.732 28.75Q124.227 28.75 125.263 28.0661Q126.298 27.3821 126.643 26.2699L125.186 25.8608Q124.898 26.6278 124.259 27.0114Q123.62 27.3949 122.732 27.3949Q121.402 27.3949 120.561 26.5575Q119.721 25.7202 119.67 24.1477L126.797 24.1477L126.797 23.5085Q126.797 22.1342 126.433 21.1946Q126.068 20.255 125.455 19.6829Q124.841 19.1108 124.093 18.8551Q123.345 18.5994 122.578 18.5994Q121.249 18.5994 120.255 19.2482Q119.261 19.897 118.708 21.0508Q118.155 22.2045 118.155 23.7131Q118.155 25.2216 118.708 26.3562Q119.261 27.4908 120.287 28.1204ZM141.575 22.6392L141.575 28.5455L140.067 28.5455L140.067 18.7273L141.524 18.7273L141.524 20.2614L141.652 20.2614Q141.997 19.5135 142.7 19.0565Q143.403 18.5994 144.516 18.5994Q146.005 18.5994 146.922 19.5135Q147.839 20.4276 147.839 22.3068L147.839 28.5455L146.331 28.5455L146.331 22.4091Q146.331 21.2521 145.73 20.6033Q145.129 19.9545 144.081 19.9545Q143.001 19.9545 142.288 20.6545Q141.575 21.3544 141.575 22.6392ZM151.966 31.8342Q152.921 32.4318 154.564 32.4318Q155.74 32.4318 156.702 32.0579Q157.664 31.6839 158.236 30.8881Q158.808 30.0923 158.808 28.8267L158.808 18.7273L157.351 18.7273L157.351 20.2869L157.197 20.2869Q157.031 20.0312 156.728 19.6317Q156.424 19.2322 155.858 18.9158Q155.293 18.5994 154.334 18.5994Q153.094 18.5994 152.148 19.2163Q151.202 19.8331 150.671 20.9549Q150.141 22.0767 150.141 23.5852Q150.141 25.1193 150.687 26.1932Q151.234 27.267 152.176 27.8295Q153.119 28.392 154.308 28.392Q155.267 28.392 155.833 28.0884Q156.398 27.7848 156.702 27.3917Q157.006 26.9986 157.172 26.7301L157.3 26.7301L157.3 28.7244Q157.3 29.9517 156.526 30.527Q155.753 31.1023 154.564 31.1023Q153.675 31.1023 153.129 30.8434Q152.582 30.5845 152.269 30.2362Q151.956 29.8878 151.751 29.6193L150.55 30.4631Q151.01 31.2365 151.966 31.8342ZM166.632 28.5455L166.632 18.7273L168.089 18.7273L168.089 20.2614L168.217 20.2614Q168.524 19.4751 169.208 19.0373Q169.892 18.5994 170.851 18.5994Q171.822 18.5994 172.471 19.0373Q173.12 19.4751 173.484 20.2614L173.587 20.2614Q173.964 19.5007 174.718 19.0501Q175.472 18.5994 176.527 18.5994Q177.844 18.5994 178.681 19.4208Q179.518 20.2422 179.518 21.9744L179.518 28.5455L178.01 28.5455L178.01 21.9744Q178.01 20.8878 177.415 20.4212Q176.821 19.9545 176.016 19.9545Q174.98 19.9545 174.411 20.5778Q173.842 21.201 173.842 22.1534L173.842 28.5455L172.308 28.5455L172.308 21.821Q172.308 20.9837 171.765 20.4691Q171.222 19.9545 170.365 19.9545Q169.777 19.9545 169.269 20.2678Q168.761 20.581 168.451 21.1339Q168.141 21.6868 168.141 22.4091L168.141 28.5455L166.632 28.5455ZM183.951 28.1204Q184.977 28.75 186.396 28.75Q187.892 28.75 188.928 28.0661Q189.963 27.3821 190.308 26.2699L188.851 25.8608Q188.563 26.6278 187.924 27.0114Q187.285 27.3949 186.396 27.3949Q185.067 27.3949 184.226 26.5575Q183.386 25.7202 183.335 24.1477L190.462 24.1477L190.462 23.5085Q190.462 22.1342 190.097 21.1946Q189.733 20.255 189.119 19.6829Q188.506 19.1108 187.758 18.8551Q187.01 18.5994 186.243 18.5994Q184.913 18.5994 183.919 19.2482Q182.925 19.897 182.373 21.0508Q181.82 22.2045 181.82 23.7131Q181.82 25.2216 182.373 26.3562Q182.925 27.4908 183.951 28.1204ZM232.649 22.6392L232.649 28.5455L231.141 28.5455L231.141 18.7273L232.598 18.7273L232.598 20.2614L232.726 20.2614Q233.071 19.5135 233.774 19.0565Q234.477 18.5994 235.589 18.5994Q237.079 18.5994 237.996 19.5135Q238.913 20.4276 238.913 22.3068L238.913 28.5455L237.405 28.5455L237.405 22.4091Q237.405 21.2521 236.804 20.6033Q236.203 19.9545 235.155 19.9545Q234.075 19.9545 233.362 20.6545Q232.649 21.3544 232.649 22.6392ZM243.039 31.8342Q243.995 32.4318 245.638 32.4318Q246.814 32.4318 247.776 32.0579Q248.738 31.6839 249.31 30.8881Q249.882 30.0923 249.882 28.8267L249.882 18.7273L248.425 18.7273L248.425 20.2869L248.271 20.2869Q248.105 20.0312 247.801 19.6317Q247.498 19.2322 246.932 18.9158Q246.366 18.5994 245.408 18.5994Q244.168 18.5994 243.222 19.2163Q242.276 19.8331 241.745 20.9549Q241.214 22.0767 241.214 23.5852Q241.214 25.1193 241.761 26.1932Q242.308 27.267 243.25 27.8295Q244.193 28.392 245.382 28.392Q246.341 28.392 246.907 28.0884Q247.472 27.7848 247.776 27.3917Q248.08 26.9986 248.246 26.7301L248.374 26.7301L248.374 28.7244Q248.374 29.9517 247.6 30.527Q246.827 31.1023 245.638 31.1023Q244.749 31.1023 244.203 30.8434Q243.656 30.5845 243.343 30.2362Q243.03 29.8878 242.825 29.6193L241.624 30.4631Q242.084 31.2365 243.039 31.8342ZM64.9474 18.7273L63.4389 18.7273L63.4389 29.2614Q63.4389 30.0092 63.1193 30.4151Q62.7997 30.821 62.1094 30.821L61.8281 30.821L61.8281 32.2273L62.1349 32.2273Q63.554 32.2273 64.2507 31.4251Q64.9474 30.6229 64.9474 29.2614L64.9474 18.7273ZM116.621 18.7273L112.99 28.5455L111.456 28.5455L107.825 18.7273L109.462 18.7273L112.172 26.5511L112.274 26.5511L114.984 18.7273L116.621 18.7273ZM135.797 18.7273L135.797 28.5455L137.305 28.5455L137.305 18.7273L135.797 18.7273ZM228.379 18.7273L226.871 18.7273L226.871 28.5455L228.379 28.5455L228.379 18.7273ZM68.7635 22.8438L74.3565 22.8438Q74.3565 21.5973 73.6278 20.7759Q72.8991 19.9545 71.6719 19.9545Q70.809 19.9545 70.1761 20.3572Q69.5433 20.7599 69.179 21.4215Q68.8146 22.0831 68.7635 22.8438ZM104.757 22.8438L99.1641 22.8438Q99.2152 22.0831 99.5795 21.4215Q99.9439 20.7599 100.577 20.3572Q101.21 19.9545 102.072 19.9545Q103.3 19.9545 104.028 20.7759Q104.757 21.5973 104.757 22.8438ZM125.263 22.8438L119.67 22.8438Q119.721 22.0831 120.085 21.4215Q120.45 20.7599 121.082 20.3572Q121.715 19.9545 122.578 19.9545Q123.805 19.9545 124.534 20.7759Q125.263 21.5973 125.263 22.8438ZM156.6 26.1133Q155.874 27.0369 154.513 27.0369Q153.094 27.0369 152.371 26.0653Q151.649 25.0938 151.649 23.5597Q151.649 22.5625 151.966 21.7443Q152.282 20.9261 152.918 20.4403Q153.554 19.9545 154.513 19.9545Q155.893 19.9545 156.609 20.9613Q157.325 21.968 157.325 23.5597Q157.325 25.1896 156.6 26.1133ZM188.928 22.8438L183.335 22.8438Q183.386 22.0831 183.75 21.4215Q184.114 20.7599 184.747 20.3572Q185.38 19.9545 186.243 19.9545Q187.47 19.9545 188.199 20.7759Q188.928 21.5973 188.928 22.8438ZM196.675 27.3949Q198.036 27.3949 198.762 26.3498Q199.487 25.3047 199.487 23.6364Q199.487 21.9872 198.771 20.9709Q198.055 19.9545 196.675 19.9545Q195.716 19.9545 195.08 20.4435Q194.444 20.9325 194.127 21.7667Q193.811 22.6009 193.811 23.6364Q193.811 24.6847 194.134 25.538Q194.457 26.3913 195.093 26.8931Q195.729 27.3949 196.675 27.3949ZM211.412 26.3498Q210.686 25.3047 210.686 23.6364Q210.686 21.9872 211.402 20.9709Q212.118 19.9545 213.499 19.9545Q214.457 19.9545 215.093 20.4435Q215.729 20.9325 216.046 21.7667Q216.362 22.6009 216.362 23.6364Q216.362 24.6847 216.039 25.538Q215.717 26.3913 215.081 26.8931Q214.445 27.3949 213.499 27.3949Q212.137 27.3949 211.412 26.3498ZM247.674 26.1133Q246.948 27.0369 245.587 27.0369Q244.168 27.0369 243.445 26.0653Q242.723 25.0938 242.723 23.5597Q242.723 22.5625 243.039 21.7443Q243.356 20.9261 243.992 20.4403Q244.628 19.9545 245.587 19.9545Q246.967 19.9545 247.683 20.9613Q248.399 21.968 248.399 23.5597Q248.399 25.1896 247.674 26.1133Z" />
    </g>
  </g>
</svg>