<svg fill="#000000" xmlns="http://www.w3.org/2000/svg"  viewBox="0 0 50 50" width="100px" height="100px"><path d="M 25 2 C 12.309295 2 2 12.309295 2 25 C 2 37.690705 12.309295 48 25 48 C 37.690705 48 48 37.690705 48 25 C 48 12.309295 37.690705 2 25 2 z M 25 4 C 36.609824 4 46 13.390176 46 25 C 46 36.609824 36.609824 46 25 46 C 13.390176 46 4 36.609824 4 25 C 4 13.390176 13.390176 4 25 4 z M 16.128906 16 L 16.128906 34 L 18.224609 34 L 18.224609 20.253906 L 18.375 20.253906 L 24.050781 33.876953 L 25.947266 33.876953 L 31.623047 20.253906 L 31.773438 20.253906 L 31.773438 34 L 33.869141 34 L 33.869141 16 L 31.261719 16 L 25.099609 30.894531 L 24.900391 30.894531 L 18.736328 16 L 16.128906 16 z"/></svg>